<svg id="Capa_1" enable-background="new 0 0 512 512" height="512" viewBox="0 0 512 512" width="512" xmlns="http://www.w3.org/2000/svg" xmlns:xlink="http://www.w3.org/1999/xlink"><linearGradient id="lg1"><stop offset="0" stop-color="#ff4747"/><stop offset="1" stop-color="#ff9ceb"/></linearGradient><linearGradient id="SVGID_1_" gradientUnits="userSpaceOnUse" x1="74.98" x2="437.019" xlink:href="#lg1" y1="437.019" y2="74.98"/><radialGradient id="SVGID_2_" cx="257.351" cy="276.957" gradientUnits="userSpaceOnUse" r="277.533"><stop offset="0" stop-color="#ff2f2b"/><stop offset=".1882" stop-color="#ff4e61" stop-opacity=".812"/><stop offset=".3834" stop-color="#ff6992" stop-opacity=".617"/><stop offset=".5685" stop-color="#ff7fb9" stop-opacity=".432"/><stop offset=".7384" stop-color="#ff8fd4" stop-opacity=".262"/><stop offset=".8876" stop-color="#ff99e5" stop-opacity=".112"/><stop offset="1" stop-color="#ff9ceb" stop-opacity="0"/></radialGradient><linearGradient id="lg2"><stop offset="0" stop-color="#ffa9d4"/><stop offset=".2953" stop-color="#ffc6e3"/><stop offset=".7601" stop-color="#ffeff7"/><stop offset="1" stop-color="#fff"/></linearGradient><linearGradient id="SVGID_3_" gradientUnits="userSpaceOnUse" x1="99.032" x2="292.483" xlink:href="#lg2" y1="266.566" y2="73.115"/><linearGradient id="SVGID_4_" gradientUnits="userSpaceOnUse" x1="199.704" x2="390.698" xlink:href="#lg2" y1="295.612" y2="104.617"/><linearGradient id="SVGID_5_" gradientUnits="userSpaceOnUse" x1="109.488" x2="373.799" xlink:href="#lg2" y1="441.096" y2="176.785"/><linearGradient id="SVGID_6_" gradientUnits="userSpaceOnUse" x1="87.87" x2="268.76" xlink:href="#lg2" y1="387.169" y2="206.278"/><linearGradient id="SVGID_7_" gradientUnits="userSpaceOnUse" x1="247.178" x2="247.178" y1="375.489" y2="198.616"><stop offset="0" stop-color="#ff2f2b"/><stop offset=".0138" stop-color="#ff4450" stop-opacity=".959"/><stop offset=".0305" stop-color="#ff5874" stop-opacity=".909"/><stop offset=".0492" stop-color="#ff6b94" stop-opacity=".853"/><stop offset=".07" stop-color="#ff7ab0" stop-opacity=".79"/><stop offset=".0935" stop-color="#ff87c6" stop-opacity=".72"/><stop offset=".1209" stop-color="#ff90d7" stop-opacity=".638"/><stop offset=".1547" stop-color="#ff97e2" stop-opacity=".537"/><stop offset=".2022" stop-color="#ff9be9" stop-opacity=".395"/><stop offset=".334" stop-color="#ff9ceb" stop-opacity="0"/></linearGradient><linearGradient id="lg3"><stop offset="0" stop-color="#ff4747"/><stop offset=".5" stop-color="#ff9ceb"/><stop offset="1" stop-color="#ffd6ef"/></linearGradient><linearGradient id="SVGID_8_" gradientUnits="userSpaceOnUse" x1="177.309" x2="389.781" xlink:href="#lg3" y1="506.196" y2="293.724"/><linearGradient id="SVGID_9_" gradientUnits="userSpaceOnUse" x1="8.268" x2="285.236" xlink:href="#lg1" y1="632.385" y2="355.417"/><linearGradient id="SVGID_10_" gradientUnits="userSpaceOnUse" x1="223.266" x2="283.878" xlink:href="#lg2" y1="441.392" y2="380.78"/><linearGradient id="SVGID_11_" gradientUnits="userSpaceOnUse" x1="165.443" x2="224.592" xlink:href="#lg2" y1="439.815" y2="380.667"/><linearGradient id="SVGID_12_" gradientUnits="userSpaceOnUse" x1="182.087" x2="522.499" xlink:href="#lg3" y1="598.335" y2="257.924"/><linearGradient id="SVGID_13_" gradientUnits="userSpaceOnUse" x1="36.404" x2="355.43" xlink:href="#lg1" y1="641.469" y2="322.443"/><linearGradient id="SVGID_14_" gradientUnits="userSpaceOnUse" x1="159.643" x2="496.922" xlink:href="#lg3" y1="546.379" y2="209.1"/><linearGradient id="SVGID_15_" gradientUnits="userSpaceOnUse" x1="7.052" x2="331.732" xlink:href="#lg1" y1="594.78" y2="270.1"/><linearGradient id="SVGID_16_" gradientUnits="userSpaceOnUse" x1="281.3" x2="343.012" xlink:href="#lg2" y1="440.803" y2="379.092"/><linearGradient id="SVGID_17_" gradientUnits="userSpaceOnUse" x1="164.243" x2="290.509" xlink:href="#lg2" y1="279.033" y2="152.767"/><linearGradient id="SVGID_18_" gradientUnits="userSpaceOnUse" x1="197.175" x2="338.452" xlink:href="#lg2" y1="292.133" y2="150.855"/><g><circle cx="256" cy="256" fill="url(#SVGID_1_)" r="256"/><circle cx="256" cy="256" fill="url(#SVGID_2_)" r="256"/><path d="m202.25 40.604c-12.412.46-22.669 11.253-22.876 23.856-.681 44.01-1.115 88.019-1.301 132.029-10.3 15.36-20.597 30.628-30.854 45.73 35.875-.049 71.75-.073 107.624-.071-10.25-25.622-20.501-51.252-30.65-76.766.085-34.124.224-68.248.417-102.373.061-12.723-9.947-22.866-22.36-22.405z" fill="url(#SVGID_3_)"/><path d="m338.106 87.994c-12.54-.636-22.587 9.265-22.467 21.918.193 18.654.346 37.308.46 55.961-10.005 33.73-20.239 67.74-30.515 101.863 25.634-18.819 51.284-37.541 76.808-55.592-.266-58.21-1.146-100.312-1.124-100.312-.231-12.441-10.623-23.201-23.162-23.838z" fill="url(#SVGID_4_)"/><path d="m162.654 211.871c-.253 0 .034 134.863 1.002 176.967 65.712-4.654 131.687-13.088 197.866-23.717.206 0 1.359-110.462.87-152.976-66.579-.883-133.158-.974-199.738-.274z" fill="url(#SVGID_5_)"/><path d="m177.989 267.582c-.044-23.698-.016-47.395.085-71.093.049-12.633-10.18-22.685-22.873-22.362-12.694.327-23.095 10.721-23.186 23.123-.233 33.333-.227 66.667.018 100 .058 8.246 3.268 21.116 7.116 28.64 5.488 10.727 10.983 21.51 16.474 32.333 19.84 10.835 39.618 21.64 59.301 32.227 18.293-9.889 36.687-20.107 55.152-30.491.186-50.848-41.138-92.137-92.087-92.377z" fill="url(#SVGID_6_)"/><path d="m362.392 212.145c-61.458-.815-122.916-.955-184.374-.421.015-5.078.033-10.156.054-15.234.049-12.633-10.18-22.685-22.873-22.362-12.694.327-23.095 10.721-23.186 23.123-.233 33.333-.227 66.667.018 100 .058 8.246 3.268 21.116 7.116 28.64 5.488 10.727 10.983 21.51 16.474 32.333 2.56 1.398 5.119 2.796 7.677 4.192.107 8.808.226 17.615.357 26.423 65.712-4.654 131.687-13.088 197.866-23.717.207-.001 1.36-110.463.871-152.977z" fill="url(#SVGID_7_)"/><path d="m199.55 367.156c.186 25.506.43 51.013.732 76.519 53.222 1.928 106.444.821 159.666-3.32.833-35.094.649-23.343 1.573-75.234-53.989 2.538-107.98 3.217-161.971 2.035z" fill="url(#SVGID_8_)"/><path d="m155.722 365.788c.344 25.219.796 50.437 1.356 75.656 53.222 3.57 106.444 4.106 159.666 1.607.503-35.581.393-23.666.949-76.277-53.989 1.531-107.98 1.202-161.971-.986z" fill="url(#SVGID_9_)"/><path d="m273.723 406.01c-.04 8.48-6.835 15.464-15.172 15.504-8.336.04-15.109-6.885-15.126-15.373-.017-8.491 6.776-15.34 15.17-15.373 8.394-.031 15.169 6.759 15.128 15.242z" fill="url(#SVGID_10_)"/><path d="m215.021 405.79c.052 8.474-6.658 15.2-14.995 14.93-8.336-.27-15.193-7.389-15.302-15.808-.11-8.421 6.616-15.013 15.009-14.8 8.393.216 15.236 7.202 15.288 15.678z" fill="url(#SVGID_11_)"/><path d="m360.14 432.832c-15.054 1.124-30.108 2.016-45.161 2.675-.073 5.087-.15 10.175-.229 15.262 15-.712 30-1.675 45-2.89 4.141-.337 7.596-3.989 7.713-8.128.116-4.141-3.164-7.227-7.323-6.919z" fill="url(#SVGID_12_)"/><path d="m322.38 442.774c.073-4.206-3.243-7.448-7.402-7.268-52.688 2.306-105.377 1.764-158.065-1.628-4.159-.265-7.45 2.876-7.349 7.041.102 4.165 3.546 7.799 7.685 8.09 52.5 3.665 105 4.251 157.5 1.759 4.142-.197 7.56-3.789 7.631-7.994z" fill="url(#SVGID_13_)"/><path d="m361.638 357.597c-15.26.671-30.521 1.204-45.781 1.598-.044 5.087-.09 10.175-.14 15.262 15.227-.447 30.455-1.051 45.682-1.813 4.204-.212 7.674-3.755 7.746-7.894.072-4.14-3.293-7.335-7.507-7.153z" fill="url(#SVGID_14_)"/><path d="m323.411 366.604c.044-4.206-3.34-7.516-7.554-7.409-53.411 1.378-106.823 1.053-160.234-.972-4.215-.157-7.585 3.079-7.522 7.244.062 4.165 3.526 7.704 7.729 7.887 53.296 2.299 106.592 2.667 159.888 1.104 4.203-.125 7.649-3.649 7.693-7.854z" fill="url(#SVGID_15_)"/><path d="m332.426 404.277c-.134 8.384-7.012 15.54-15.348 15.89-8.337.351-15.025-6.296-14.95-14.751.077-8.457 6.936-15.479 15.33-15.76 8.393-.277 15.102 6.236 14.968 14.621z" fill="url(#SVGID_16_)"/><path d="m247.18 142.222c-12.651.019-22.948 10.446-22.986 23.16-.051 20.475-.083 40.949-.095 61.424-.008 12.716 10.32 23.034 23.057 23.038 12.736-.001 23.064-10.325 23.058-23.05 10.243-10.23 20.477-20.43 30.682-30.548-10.265-10.294-20.52-20.615-30.75-30.913-.029-12.724-10.315-23.129-22.966-23.111z" fill="url(#SVGID_17_)"/><path d="m293.02 142.538c-12.652-.199-22.891 10.064-22.873 22.795.036 20.487.059 40.974.068 61.461.004 12.732 10.329 23.051 23.066 23.039 12.735-.018 23.068-10.279 23.049-22.91-.029-20.35-.106-40.699-.23-61.049-.083-12.63-10.428-23.135-23.08-23.336z" fill="url(#SVGID_18_)"/></g></svg>